<?xml version="1.0" encoding="utf-8"?>
<!-- Generator: Adobe Illustrator 26.0.1, SVG Export Plug-In . SVG Version: 6.00 Build 0)  -->
<svg version="1.1" id="Layer_1" xmlns="http://www.w3.org/2000/svg" xmlns:xlink="http://www.w3.org/1999/xlink" x="0px" y="0px"
	 viewBox="0 0 36 36" style="enable-background:new 0 0 36 36;" xml:space="preserve">
<style type="text/css">
	.st0{fill:#31373D;}
	.st1{fill:#FFFFFF;}
	.st2{fill:#006C66;}
	.st3{fill:#00B1EA;}
	.st4{fill:#C6D325;}
</style>
<path class="st0" d="M32.8,33.4c-2.7-3.3-3.9-6.6-4.4-8.7c-0.1-0.3-0.2-0.5-0.5-0.7s-0.6-0.2-0.8,0l-7.1,2.7
	c-0.3,0.1-0.5,0.4-0.6,0.7c-0.1,0.3,0,0.7,0.2,0.9c6,6,12.4,6.8,12.5,6.8c0.4,0,0.7-0.2,0.9-0.5C33.1,34.1,33,33.7,32.8,33.4z"/>
<ellipse class="st0" cx="18" cy="16" rx="18" ry="14"/>
<path class="st1" d="M18,7c-5,0-9,4-9,9s4,9,9,9s9-4,9-9S23,7,18,7z M18,21c-2.8,0-5-2.2-5-5s2.2-5,5-5s5,2.2,5,5S20.8,21,18,21z"/>
<g>
	<path class="st2" d="M15.3,15.5c0-0.1,0.1-0.2,0.3-0.2c0.1,0,0.2,0.1,0.2,0.3c0,0.1-0.1,0.2-0.3,0.2C15.3,15.7,15.3,15.6,15.3,15.5
		 M13.7,14.5c0.1,0.1,0.3,0.1,0.3,0c0-0.1,0.1-0.2-0.2-0.5c-0.1-0.1-0.3,0-0.3,0.1C13.5,14.3,13.6,14.3,13.7,14.5 M21.7,16.3
		c-0.2-0.2-0.3-0.3-0.4-0.1c-0.1,0.1-0.1,0.5,0.1,0.5c0.1,0.1,0.3,0.1,0.3,0C21.9,16.5,21.8,16.4,21.7,16.3 M21.7,17.4
		c-0.3,0.8-0.9,1.6-1.7,2.1c-0.2,0.1-0.4,0.2-0.6,0.3c0,0-0.4,0.1-0.4,0.7c0,0.5,0.3,0.4,0.3,0.4C18.9,20.9,18.4,21,18,21
		c-2.8,0-5-2.2-5-5c0-0.5,0.1-0.9,0.2-1.3c0,0,0.1-0.3,0.5,0c0.5,0.3,0.4,0.7,0.4,0.7c0,0.2-0.1,0.4-0.1,0.6c0,1,0.3,1.8,0.9,2.5
		c0.1,0.1,0.3,0.2,0.7,0c0.5-0.2,0.2-0.6,0.2-0.6c-0.3-0.3-0.5-0.8-0.6-1.2C15,16.5,15,16,15.3,15.9c0.3-0.1,0.6,0.2,0.7,0.6
		c0,0.2,0.1,0.3,0.2,0.5c0.1,0.2,0.4,0.3,0.7,0.2c0.3-0.1,0.3-0.4,0.1-0.7c-0.1-0.3-0.1-0.6,0.2-0.7c0.2-0.1,0.5-0.1,0.7,0.2h0
		c-0.1,0.2-0.1,0.5,0.2,0.7c0.2,0.1,0.6,0.1,0.7-0.2c0.1-0.2,0.4-0.5,0.7-0.2c0.3,0.2,0.3,0.5,0.2,0.7c-0.1,0.2-0.2,0.3-0.3,0.4
		c-0.3,0.3-0.3,0.7-0.2,0.9c0.2,0.2,0.6,0,0.8-0.2c0.3-0.3,0.6-0.7,0.7-1.2c0,0,0.2-0.5,0.6-0.1C21.8,17.1,21.8,17.3,21.7,17.4
		 M16.2,18.9c-0.1-0.1-0.4-0.3-0.5-0.2c-0.1,0.1-0.2,0.2-0.1,0.3c0.1,0.1,0.2,0.2,0.3,0.1C16.2,19,16.3,19,16.2,18.9 M18.8,20.5
		c0-0.1,0-0.3-0.2-0.3c-0.1,0-0.3,0-0.3,0.4c0,0.1,0.2,0.2,0.3,0.2C18.7,20.7,18.8,20.7,18.8,20.5 M19,18.3
		c-0.1-0.1-0.2-0.2-0.3-0.1c-0.1,0-0.2,0.2-0.1,0.3c0.1,0.2,0.2,0.2,0.4,0.2C19,18.6,19.1,18.5,19,18.3 M19.3,17.1
		c0.1-0.1,0.2-0.3,0.2-0.4c0-0.1-0.2-0.3-0.3-0.2c-0.1,0.1-0.2,0.3-0.2,0.4C19.1,17,19.2,17.2,19.3,17.1 M16.6,17
		c0.1,0,0.3,0,0.3-0.2c0-0.1-0.1-0.3-0.3-0.4c-0.1,0-0.3,0-0.3,0.2C16.4,16.8,16.5,16.9,16.6,17"/>
	<path class="st3" d="M21.5,12.5c0,0,0.2,0.2-0.2,0.4c-0.5,0.2-0.8,0-0.8,0c-0.2-0.1-0.3-0.3-0.5-0.4c-0.8-0.5-1.8-0.6-2.6-0.5
		c-0.2,0-0.3,0.1-0.3,0.6c-0.1,0.5,0.4,0.4,0.4,0.4c0.5-0.1,0.9-0.1,1.4,0.1c0.3,0.1,0.7,0.3,0.6,0.6c-0.1,0.3-0.5,0.4-0.9,0.3
		C18.3,14,18.2,14,18,14c-0.3,0-0.5,0.2-0.5,0.5C17.4,14.9,17.7,15,18,15c0.3,0,0.5,0.2,0.5,0.5c0,0.3-0.2,0.5-0.5,0.5v0
		c-0.1,0.2-0.1,0.5,0.2,0.7c0.2,0.1,0.6,0.1,0.7-0.2c0.1-0.2,0.4-0.5,0.7-0.2c0.3,0.2,0.3,0.5,0.2,0.7c-0.1,0.2-0.2,0.3-0.3,0.4
		c-0.3,0.3-0.3,0.7-0.2,0.9c0.2,0.2,0.6,0,0.8-0.2c0.3-0.3,0.6-0.7,0.7-1.2c0,0,0.2-0.5,0.6-0.1c0.3,0.3,0.4,0.4,0.3,0.6
		c-0.3,0.8-0.9,1.6-1.7,2.1c-0.2,0.1-0.4,0.2-0.6,0.3c0,0-0.4,0.1-0.4,0.7c0,0.5,0.3,0.4,0.3,0.4c2.1-0.6,3.7-2.5,3.7-4.8
		C23,14.6,22.4,13.4,21.5,12.5 M18.3,14.7c-0.1,0.1-0.3,0.1-0.5,0c-0.1-0.1-0.1-0.3,0-0.4c0.1-0.1,0.3-0.1,0.4,0
		C18.4,14.3,18.4,14.6,18.3,14.7 M19.9,14.3c-0.1,0.1-0.2,0.1-0.3,0c-0.1-0.1-0.1-0.2-0.1-0.4c0.1-0.2,0.2-0.1,0.3-0.1
		C19.9,14,20,14.1,19.9,14.3 M21.5,13.1c0.2-0.1,0.3-0.1,0.4,0c0.1,0.1,0.1,0.3,0,0.4c-0.3,0.1-0.4,0-0.5-0.1
		C21.2,13.3,21.3,13.2,21.5,13.1 M21.8,16.6c-0.1,0.1-0.2,0.1-0.3,0c-0.1-0.1-0.1-0.4-0.1-0.5c0.1-0.1,0.2-0.1,0.4,0.1
		C21.8,16.4,21.9,16.5,21.8,16.6 M21.5,12.5L21.5,12.5C21.5,12.5,21.5,12.5,21.5,12.5 M18.3,20.5c0.1-0.3,0.2-0.4,0.3-0.4
		c0.1,0,0.2,0.2,0.2,0.3c0,0.2-0.1,0.3-0.2,0.3C18.4,20.8,18.3,20.7,18.3,20.5 M18.9,18.6c0.1,0,0.3-0.1,0.1-0.3
		c-0.1-0.1-0.2-0.2-0.3-0.1c-0.1,0-0.2,0.2-0.1,0.3C18.6,18.7,18.8,18.7,18.9,18.6 M19.3,17.1c0.1-0.1,0.2-0.3,0.2-0.4
		c0-0.1-0.2-0.3-0.3-0.2c-0.1,0.1-0.2,0.3-0.2,0.4C19.1,17,19.2,17.2,19.3,17.1 M16.4,12.6c-0.1,0.3-0.1,0.4,0.1,0.4
		c0.1,0,0.4-0.2,0.4-0.3c0-0.1-0.1-0.3-0.2-0.3C16.5,12.4,16.4,12.5,16.4,12.6"/>
	<path class="st4" d="M19.8,13.9c0.1,0.1,0.2,0.2,0,0.4c-0.1,0.1-0.2,0.1-0.3,0c-0.1-0.1-0.1-0.2-0.1-0.4
		C19.6,13.8,19.7,13.8,19.8,13.9 M15.7,18.6c-0.1,0.1-0.2,0.2-0.1,0.3c0.1,0.1,0.2,0.2,0.3,0.1c0.3-0.1,0.4-0.1,0.3-0.2
		C16.2,18.7,15.8,18.6,15.7,18.6 M21.8,13.1c-0.1-0.1-0.2-0.1-0.4,0c-0.1,0.1-0.3,0.2-0.2,0.3c0.1,0.1,0.2,0.2,0.5,0.1
		C21.9,13.4,21.9,13.2,21.8,13.1 M21.3,12.9c-0.5,0.2-0.8,0-0.8,0c-0.2-0.1-0.3-0.3-0.5-0.4c-0.8-0.5-1.8-0.6-2.6-0.5
		c-0.2,0-0.3,0.2-0.3,0.6c-0.1,0.5,0.4,0.4,0.4,0.4c0.5-0.1,0.9-0.1,1.4,0.1c0.3,0.1,0.7,0.3,0.6,0.6c-0.1,0.3-0.5,0.4-0.9,0.3
		C18.3,14,18.2,14,18,14c-0.3,0-0.5,0.2-0.5,0.5C17.4,14.9,17.7,15,18,15c0.3,0,0.5,0.2,0.5,0.5S18.3,16,18,16l0,0
		c-0.1-0.2-0.4-0.3-0.7-0.2c-0.2,0.1-0.3,0.4-0.2,0.7c0.1,0.2,0.2,0.6-0.1,0.7c-0.3,0.1-0.6,0-0.7-0.2c-0.1-0.2-0.2-0.3-0.2-0.5
		c-0.1-0.4-0.5-0.7-0.7-0.6C15,16,15,16.5,15.1,16.7c0.1,0.5,0.3,0.9,0.6,1.2c0,0,0.3,0.4-0.2,0.6c-0.4,0.1-0.5,0.1-0.7,0
		C14.3,17.8,14,17,14,16c0-0.2,0-0.4,0.1-0.6c0,0,0.1-0.4-0.4-0.7c-0.4-0.3-0.5,0-0.5,0c0.6-2.1,2.5-3.7,4.8-3.7
		c1.4,0,2.6,0.6,3.5,1.5C21.5,12.5,21.8,12.7,21.3,12.9 M13.9,14c-0.1-0.1-0.3,0-0.3,0.1c0,0.1,0,0.2,0.1,0.3c0.1,0.1,0.3,0.1,0.3,0
		C14.1,14.3,14.2,14.2,13.9,14 M15.6,15.2c-0.2,0-0.3,0.1-0.3,0.2c0,0.1,0,0.3,0.2,0.3c0.1,0,0.2-0.1,0.3-0.2
		C15.8,15.4,15.7,15.2,15.6,15.2 M16.4,13c0.1,0,0.4-0.2,0.4-0.3c0-0.1-0.1-0.3-0.2-0.3c-0.1,0-0.2,0.1-0.3,0.2
		C16.3,12.9,16.3,13,16.4,13 M17,16.8c0-0.1-0.1-0.3-0.3-0.4c-0.1,0-0.3,0-0.3,0.2c0,0.1,0.1,0.3,0.2,0.4C16.8,17,17,17,17,16.8
		 M17.8,14.3c-0.1,0.1-0.2,0.3,0,0.4c0.1,0.1,0.4,0.1,0.5,0c0.1-0.1,0.2-0.3,0-0.4C18.1,14.3,17.9,14.2,17.8,14.3"/>
</g>
</svg>
