<?xml version="1.0" encoding="utf-8"?>
<!-- Generator: Adobe Illustrator 26.0.1, SVG Export Plug-In . SVG Version: 6.00 Build 0)  -->
<svg version="1.1" id="Layer_1" xmlns="http://www.w3.org/2000/svg" xmlns:xlink="http://www.w3.org/1999/xlink" x="0px" y="0px"
	 viewBox="0 0 400 400" style="enable-background:new 0 0 400 400;" xml:space="preserve">
<style type="text/css">
	.st0{fill:#31373D;}
	.st1{fill:#FFFFFF;}
	.st2{fill:#006C66;}
	.st3{fill:#00B1EA;}
	.st4{fill:#C6D325;}
</style>
<path class="st0" d="M361.2,362.2c-29.4-35.9-42.5-71.9-47.9-94.7c-1.1-3.3-2.2-5.4-5.4-7.6c-3.3-2.2-6.5-2.2-8.7,0l-77.3,29.4
	c-3.3,1.1-5.4,4.4-6.5,7.6c-1.1,3.3,0,7.6,2.2,9.8c65.3,65.3,135,74,136.1,74c4.4,0,7.6-2.2,9.8-5.4
	C364.4,369.9,363.3,365.5,361.2,362.2z"/>
<path class="st0" d="M200,20.3C91.8,20.3,4,88.6,4,172.8s87.8,152.4,196,152.4S396,257,396,172.8S308.2,20.3,200,20.3z"/>
<path class="st1" d="M200,74.8c-54.4,0-98,43.6-98,98s43.6,98,98,98s98-43.6,98-98S254.4,74.8,200,74.8z"/>
<g>
	<path class="st2" d="M170.5,166.9c0.3-1.4,1-2.6,3.4-2.6c1.5,0,2.3,1.6,2,3c-0.3,1.4-1.5,2.3-3,2.4
		C170.1,169.9,170.2,168.3,170.5,166.9 M153.6,155.9c1.3,0.8,3.2,1.3,3.7-0.1c0.5-1.4,1-2.7-1.8-5c-1.2-1-3,0.2-3.5,1.6
		C151.5,153.9,151.6,154.7,153.6,155.9 M240.7,175.5c-2.2-2.5-2.9-2.8-3.8-1.6c-0.9,1.2-0.6,5,0.6,5.9c1.2,0.9,2.9,0.7,3.8-0.5
		C242.1,178.1,241.7,176.6,240.7,175.5 M240.7,188.2c-3.4,9.1-9.9,17.1-18.9,22.3c-2.1,1.2-4.2,2.2-6.4,3c0,0-3.9,1.3-4.3,7.4
		c-0.4,5.3,2.9,4.5,2.9,4.5c-4.5,1.2-9.1,1.8-14,1.8c-30.1,0-54.4-24.4-54.4-54.4c0-4.9,0.7-9.7,1.9-14.2c0,0,1-3.2,5.4-0.2
		c5,3.4,4.2,7.4,4.2,7.4c-0.4,2.3-0.6,4.6-0.6,7c0,10.5,3.7,20.1,9.9,27.6c1.3,1.3,2.9,1.8,7.2,0.2c5.3-2,1.8-6.4,1.8-6.4
		c-3.3-3.8-5.7-8.3-7-13.3c-0.8-2.9-0.6-8.1,2.7-9c2.9-0.8,6.7,2.1,7.9,6.5c0.5,1.9,1.3,3.8,2.3,5.4c1.5,2.5,4.2,3.3,8,1.9
		c3.6-1.3,3-4.8,1.4-7.4c-1.6-2.7-0.6-6.1,2-7.6c2.6-1.5,5.9-0.6,7.4,2h0c-1.5,2.6-0.7,5.9,1.9,7.4c2.6,1.5,6,0.7,7.6-2.1
		c1.5-2.6,4.2-4.9,7.1-2.5c3.1,2.6,3.7,5.3,2.3,7.9c-1,1.7-2.2,3.3-3.6,4.7c-3.2,3.2-3.8,7.9-1.7,10.1c2.4,2.5,7,0,9.1-2.1
		c3.7-3.6,6.4-8,8-12.7c0,0,2.1-5.2,6.4-1.6C240.8,184.7,241.2,186.4,240.7,188.2 M180.6,204.1c-0.6-1.4-4-3.1-5.4-2.5
		c-1.4,0.6-2,2.2-1.4,3.6c0.6,1.4,2.1,1.8,3.6,1.4C180.5,205.9,181.2,205.5,180.6,204.1 M208.6,221.4c0.1-1.5-0.4-3.4-1.9-3.2
		c-1.5,0.3-2.8,0.5-3.4,4.1c-0.3,1.5,1.7,2.5,3.1,2.2C207.8,224.2,208.5,223.7,208.6,221.4 M210.9,197.8c-0.8-1.2-2.3-1.8-3.6-1.4
		c-1.4,0.4-2.3,1.9-1.6,3.2c1.2,2.1,2.6,2.1,4,1.7C211,200.9,212.4,200.1,210.9,197.8 M214.6,184.6c1.1-1.1,2.4-2.7,2.1-4.2
		c-0.3-1.4-2-3.2-3.4-2.3c-1.3,0.9-2.4,3.1-2.1,4.6C211.5,184.1,213.2,185.8,214.6,184.6 M185,183.4c1.4,0.4,3.8-0.1,3.7-1.8
		c-0.1-1.5-1.5-3.7-2.9-4.1c-1.4-0.4-3.8,0.2-3.4,2C182.8,181,183.6,183,185,183.4"/>
	<path class="st3" d="M238.6,134.4c0,0,2.3,2.4-2.5,4.7c-5.4,2.6-8.5,0-8.5,0c-1.8-1.5-3.7-2.8-5.8-4c-9.1-5.2-19.2-6.8-28.8-5.2
		c-1.8,0.5-3,1.6-3.8,6.1c-1,5.6,4.6,4.8,4.6,4.8c4.9-1,10.1-0.8,15.1,0.6c2.9,0.8,7.3,3.5,6.4,6.8c-0.8,2.9-5.1,4.8-9.5,3.6
		c-1.9-0.5-3.9-0.8-5.8-0.7c-2.9,0.1-5,2-5.7,6c-0.7,3.8,2.7,5,5.7,4.9c3.2,0,5.6,2.5,5.6,5.5c0,3-2.5,5.4-5.5,5.4v0
		c-1.5,2.6-0.7,5.9,1.9,7.4c2.6,1.5,6,0.7,7.6-2.1c1.5-2.6,4.2-4.9,7.1-2.5c3.1,2.6,3.7,5.3,2.3,7.9c-1,1.7-2.2,3.3-3.6,4.7
		c-3.2,3.2-3.8,7.9-1.7,10.1c2.4,2.5,7,0,9.1-2.1c3.7-3.6,6.4-8,8-12.7c0,0,2.1-5.2,6.4-1.6c3.5,2.9,3.9,4.6,3.4,6.4
		c-3.4,9.1-9.9,17.1-18.9,22.3c-2.1,1.2-4.2,2.2-6.4,3c0,0-3.9,1.3-4.3,7.4c-0.4,5.3,2.9,4.5,2.9,4.5c23.3-6.2,40.5-27.4,40.5-52.6
		C254.4,157.8,248.4,144.2,238.6,134.4 M203,158.1c-1.1,1-3.6,1.1-5,0.5c-1.5-0.7-0.8-3.1,0.3-4.1c1.1-1,3.2-0.7,4.7-0.2
		C204.7,154.8,204,157.1,203,158.1 M220.4,154.4c-0.8,1.3-2.5,1.2-3.5,0.2c-1-1-1.3-2.5-0.6-3.8c1.2-2.4,2.6-1.6,3.6-0.6
		C220.9,151.1,221.6,152.3,220.4,154.4 M237.8,141.1c2.1-1.1,2.9-0.8,3.8,0.4c1,1.2,1,3.3-0.4,3.8c-3.4,1.3-4.3,0.2-5.3-0.9
		C235,143.2,236.4,141.8,237.8,141.1 M241.2,179.3c-0.9,1.2-2.6,1.4-3.8,0.5c-1.2-0.9-1.5-4.7-0.6-5.9c0.9-1.2,1.6-0.9,3.8,1.6
		C241.7,176.6,242.1,178.1,241.2,179.3 M238.6,134.4L238.6,134.4C238.6,134.4,238.6,134.4,238.6,134.4 M203.2,222.3
		c0.6-3.6,2-3.8,3.4-4.1c1.5-0.2,2,1.7,1.9,3.2c-0.1,2.4-0.7,2.9-2.2,3.1C204.9,224.7,203,223.7,203.2,222.3 M209.7,201.3
		c1.4-0.4,2.8-1.2,1.3-3.5c-0.8-1.2-2.3-1.8-3.6-1.4c-1.4,0.4-2.3,1.9-1.6,3.2C206.9,201.7,208.3,201.7,209.7,201.3 M214.6,184.6
		c1.1-1.1,2.4-2.7,2.1-4.2c-0.3-1.4-2-3.2-3.4-2.3c-1.3,0.9-2.4,3.1-2.1,4.5C211.5,184.1,213.2,185.8,214.6,184.6 M182,136.2
		c-1,3.1-0.9,3.9,0.6,4.1c1.5,0.2,4.7-2,4.8-3.5c0.2-1.5-0.9-2.8-2.4-3C183.6,133.6,182.5,134.8,182,136.2"/>
	<path class="st4" d="M219.8,150.2c1,1,1.7,2.2,0.5,4.3c-0.8,1.3-2.5,1.2-3.5,0.2c-1-1-1.3-2.5-0.6-3.8
		C217.4,148.4,218.8,149.2,219.8,150.2 M175.2,201.6c-1.4,0.6-2,2.2-1.4,3.6c0.6,1.4,2.1,1.8,3.6,1.4c3.2-0.7,3.9-1.2,3.3-2.5
		C180,202.7,176.6,201,175.2,201.6 M241.6,141.4c-1-1.2-1.7-1.5-3.8-0.4c-1.3,0.7-2.7,2.1-1.8,3.3c1,1.2,1.9,2.2,5.3,0.9
		C242.6,144.7,242.6,142.6,241.6,141.4 M236.1,139.1c-5.4,2.6-8.5,0-8.5,0c-1.8-1.5-3.7-2.8-5.8-4c-9.1-5.2-19.2-6.8-28.8-5.2
		c-1.8,0.5-3,1.6-3.8,6.1c-1,5.6,4.6,4.8,4.6,4.8c4.9-1,10.1-0.8,15.1,0.6c2.9,0.8,7.3,3.5,6.4,6.8c-0.8,2.9-5.1,4.8-9.5,3.6
		c-1.9-0.5-3.9-0.8-5.8-0.8c-2.9,0.1-5,2-5.7,6c-0.7,3.8,2.7,5,5.7,4.9c3.2,0,5.6,2.5,5.6,5.5s-2.5,5.4-5.5,5.4l0,0
		c-1.5-2.6-4.8-3.5-7.4-2c-2.6,1.5-3.6,4.9-2,7.6c1.5,2.6,2.2,6.1-1.4,7.4c-3.8,1.4-6.5,0.5-8-1.9c-1-1.7-1.8-3.5-2.3-5.4
		c-1.2-4.4-5-7.2-7.9-6.5c-3.3,0.9-3.5,6.1-2.7,9c1.3,5,3.7,9.6,7,13.3c0,0,3.5,4.4-1.8,6.4c-4.3,1.6-5.9,1.1-7.2-0.2
		c-6.2-7.5-9.9-17.1-9.9-27.6c0-2.4,0.2-4.8,0.6-7c0,0,0.8-4-4.2-7.4c-4.4-2.9-5.4,0.2-5.4,0.2c6.3-23.2,27.4-40.2,52.6-40.2
		c15.1,0,28.7,6.1,38.6,16C238.6,134.4,240.9,136.8,236.1,139.1 M155.5,150.8c-1.2-1-3,0.2-3.5,1.6c-0.5,1.4-0.4,2.2,1.6,3.5
		c1.3,0.8,3.2,1.3,3.7-0.1C157.9,154.5,158.3,153.1,155.5,150.8 M173.9,164.3c-2.4,0-3.1,1.2-3.4,2.6c-0.3,1.4-0.3,3,2.4,2.8
		c1.5-0.1,2.7-1.1,3-2.4C176.2,165.9,175.4,164.3,173.9,164.3 M182.6,140.3c1.5,0.2,4.7-2,4.8-3.5c0.2-1.5-0.9-2.8-2.4-3
		c-1.5-0.2-2.6,0.9-3,2.4C181,139.3,181.1,140.1,182.6,140.3 M188.7,181.6c-0.1-1.5-1.5-3.7-2.9-4.1c-1.4-0.4-3.8,0.2-3.4,2
		c0.3,1.5,1.1,3.5,2.5,3.9C186.4,183.9,188.8,183.3,188.7,181.6 M198.3,154.5c-1.1,1-1.8,3.4-0.3,4.1c1.4,0.7,3.9,0.5,5-0.5
		c1.1-1,1.7-3.3,0-3.9C201.4,153.8,199.3,153.5,198.3,154.5"/>
</g>
</svg>
